<svg width="158" height="31" viewBox="0 0 158 31" fill="none" xmlns="http://www.w3.org/2000/svg">
<path d="M9.112 24.256C7.34133 24.256 5.72 24.0213 4.248 23.552C2.79733 23.0827 1.53867 22.3787 0.472 21.44L1.656 19.008C2.76533 19.904 3.91733 20.5547 5.112 20.96C6.30667 21.3653 7.65067 21.568 9.144 21.568C10.8507 21.568 12.1733 21.248 13.112 20.608C14.0507 19.968 14.52 19.0613 14.52 17.888C14.52 16.9067 14.0827 16.1707 13.208 15.68C12.3333 15.168 10.9467 14.6987 9.048 14.272C7.23467 13.888 5.752 13.4507 4.6 12.96C3.448 12.448 2.54133 11.776 1.88 10.944C1.21867 10.0907 0.888 9.00267 0.888 7.68C0.888 6.35733 1.24 5.19467 1.944 4.192C2.648 3.168 3.64 2.37867 4.92 1.824C6.22133 1.248 7.71467 0.959999 9.4 0.959999C11 0.959999 12.4933 1.20533 13.88 1.696C15.288 2.18667 16.4613 2.88 17.4 3.776L16.216 6.208C15.1707 5.33333 14.0933 4.69333 12.984 4.288C11.8747 3.86133 10.6907 3.648 9.432 3.648C7.78933 3.648 6.49867 4 5.56 4.704C4.62133 5.38667 4.152 6.32533 4.152 7.52C4.152 8.544 4.55733 9.32267 5.368 9.856C6.2 10.3893 7.52267 10.8693 9.336 11.296C11.2347 11.7227 12.7707 12.1707 13.944 12.64C15.1173 13.1093 16.056 13.7493 16.76 14.56C17.464 15.3707 17.816 16.416 17.816 17.696C17.816 19.0187 17.464 20.1707 16.76 21.152C16.056 22.1333 15.0427 22.9013 13.72 23.456C12.4187 23.9893 10.8827 24.256 9.112 24.256ZM21.618 7.872H24.818V24H21.618V7.872ZM25.074 0.831999V4.224H21.33V0.831999H25.074ZM47.9555 7.488C51.5395 7.488 53.3315 9.64267 53.3315 13.952V24H50.0995V14.112C50.0995 12.7253 49.8542 11.712 49.3635 11.072C48.8942 10.432 48.1262 10.112 47.0595 10.112C45.8222 10.112 44.8408 10.5387 44.1155 11.392C43.4115 12.2453 43.0595 13.408 43.0595 14.88V24H39.8275V14.112C39.8275 12.7253 39.5822 11.712 39.0915 11.072C38.6222 10.432 37.8542 10.112 36.7875 10.112C35.5502 10.112 34.5688 10.5387 33.8435 11.392C33.1182 12.2453 32.7555 13.408 32.7555 14.88V24H29.5555V12.416C29.5555 10.7307 29.4702 9.216 29.2995 7.872H32.3075L32.5955 10.56C33.0648 9.57867 33.7368 8.82133 34.6115 8.288C35.4862 7.75467 36.5102 7.488 37.6835 7.488C40.1795 7.488 41.8115 8.52267 42.5795 10.592C43.0702 9.632 43.7848 8.87467 44.7235 8.32C45.6835 7.76533 46.7608 7.488 47.9555 7.488ZM66.5058 7.488C67.8924 7.488 69.1298 7.84 70.2178 8.544C71.3058 9.248 72.1484 10.24 72.7458 11.52C73.3644 12.8 73.6737 14.272 73.6737 15.936C73.6737 17.6 73.3751 19.0613 72.7778 20.32C72.1804 21.5573 71.3378 22.5173 70.2498 23.2C69.1618 23.8827 67.9138 24.224 66.5058 24.224C65.2684 24.224 64.1804 23.968 63.2418 23.456C62.3244 22.9227 61.6311 22.1653 61.1618 21.184V30.912H57.9618V12.416C57.9618 10.7307 57.8764 9.216 57.7057 7.872H60.7138L61.0338 10.848C61.4604 9.78133 62.1538 8.96 63.1138 8.384C64.0738 7.78667 65.2044 7.488 66.5058 7.488ZM65.7698 21.664C67.2204 21.664 68.3511 21.1627 69.1618 20.16C69.9724 19.1573 70.3778 17.7493 70.3778 15.936C70.3778 14.1013 69.9724 12.672 69.1618 11.648C68.3511 10.6027 67.2204 10.08 65.7698 10.08C64.2764 10.08 63.1351 10.5813 62.3458 11.584C61.5564 12.5867 61.1618 14.016 61.1618 15.872C61.1618 17.728 61.5564 19.1573 62.3458 20.16C63.1564 21.1627 64.2978 21.664 65.7698 21.664ZM92.7257 18.368H81.2058L78.7738 24H75.4138L85.5578 1.216H88.3418L98.5178 24H95.1578L92.7257 18.368ZM91.6058 15.744L86.9658 4.896L82.3258 15.744H91.6058ZM108.189 24.224C106.567 24.224 105.149 23.8827 103.933 23.2C102.738 22.5173 101.821 21.5573 101.181 20.32C100.541 19.0613 100.221 17.6 100.221 15.936C100.221 14.272 100.551 12.8 101.213 11.52C101.895 10.24 102.845 9.248 104.061 8.544C105.277 7.84 106.695 7.488 108.317 7.488C109.447 7.488 110.535 7.68 111.581 8.064C112.626 8.42667 113.469 8.928 114.109 9.568L113.117 11.904C111.602 10.7093 110.077 10.112 108.541 10.112C106.983 10.112 105.767 10.624 104.893 11.648C104.018 12.6507 103.581 14.0693 103.581 15.904C103.581 17.7387 104.018 19.1573 104.893 20.16C105.767 21.1413 106.983 21.632 108.541 21.632C110.119 21.632 111.645 21.0347 113.117 19.84L114.109 22.176C113.426 22.816 112.551 23.3173 111.485 23.68C110.439 24.0427 109.341 24.224 108.189 24.224ZM117.149 7.872H120.349V24H117.149V7.872ZM120.605 0.831999V4.224H116.861V0.831999H120.605ZM133.663 7.488C137.524 7.488 139.455 9.64267 139.455 13.952V24H136.223V14.144C136.223 12.736 135.945 11.712 135.391 11.072C134.857 10.432 133.993 10.112 132.799 10.112C131.433 10.112 130.335 10.5387 129.503 11.392C128.692 12.2453 128.287 13.3867 128.287 14.816V24H125.087V12.416C125.087 10.7307 125.001 9.216 124.831 7.872H127.839L128.127 10.656C128.639 9.632 129.375 8.85333 130.335 8.32C131.316 7.76533 132.425 7.488 133.663 7.488ZM157.816 16H146.296C146.402 19.776 148.12 21.664 151.448 21.664C153.304 21.664 155 21.056 156.536 19.84L157.528 22.144C156.802 22.784 155.874 23.296 154.744 23.68C153.634 24.0427 152.514 24.224 151.384 24.224C148.802 24.224 146.776 23.488 145.304 22.016C143.832 20.5227 143.096 18.4853 143.096 15.904C143.096 14.2613 143.416 12.8 144.056 11.52C144.717 10.24 145.634 9.248 146.808 8.544C147.981 7.84 149.314 7.488 150.808 7.488C152.984 7.488 154.69 8.192 155.928 9.6C157.186 11.008 157.816 12.96 157.816 15.456V16ZM150.872 9.888C149.656 9.888 148.664 10.2507 147.896 10.976C147.128 11.7013 146.637 12.736 146.424 14.08H154.968C154.84 12.7147 154.424 11.68 153.72 10.976C153.016 10.2507 152.066 9.888 150.872 9.888Z" fill="#B9C0C1"/>
</svg>
