<svg width="24" height="24" viewBox="0 0 24 24" fill="none" xmlns="http://www.w3.org/2000/svg">
<g clip-path="url(#clip0_1_45)">
<path d="M21.6513 13.9598L15.609 20.2839C14.522 21.3708 13.048 21.9813 11.5111 21.9813H10.3703C7.4368 21.9813 5.05834 19.603 5.05834 16.6693C5.05834 15.2556 4.68611 13.8673 3.97946 12.6431L2.1726 9.5135C1.89597 9.03446 1.96141 8.44786 2.30016 8.04347C2.86874 7.36318 3.95217 7.44551 4.40321 8.22576C7.03274 12.7804 3.98775 7.50599 6.97628 12.6826C4.9173 4.99856 4.92623 5.22395 4.99879 4.80721C4.99879 4.76544 5.0513 4.55731 5.12394 4.41203C5.71694 3.19395 7.48437 3.38486 7.8282 4.66676C7.93552 5.06741 9.62291 11.3654 9.72641 11.7518C9.72641 2.97693 9.72005 3.42059 9.73808 3.28566C9.83844 2.53362 10.4945 2.02327 11.1007 2.02327C11.94 1.98235 12.6238 2.6494 12.6238 3.46997V12.0013C15.0459 3.55287 14.8449 4.14527 15.0239 3.87239C15.4007 3.27528 16.253 3.02469 16.9325 3.40558C17.4714 3.67609 17.812 4.37066 17.6307 5.04826L15.5212 12.9204V14.6319C15.5212 15.2057 16.2146 15.4931 16.6203 15.0874C18.5678 12.8327 18.3938 13.0284 18.4871 12.9413C19.4949 12.0073 20.8653 11.87 21.3185 12.0966C22.0347 12.4046 22.2521 13.359 21.6513 13.9598Z" fill="#F9CFAC"/>
<path d="M21.9221 12.7252L15.0158 19.8935C14.1478 20.6569 13.0737 21.1418 11.9333 21.2891C8.3386 21.7564 5.70219 19.0933 5.70219 16.0255C5.70219 14.6118 5.32996 13.2234 4.62331 11.9993C2.18585 7.85386 2.32734 8.09689 2.30014 8.04348C2.61697 7.66445 3.13271 7.49165 3.62973 7.62819C3.90889 7.70481 4.06881 7.83225 4.25026 8.01371C5.61785 10.3043 6.98028 12.6826 6.97625 12.6826C7.32141 12.6826 7.57264 12.3552 7.4833 12.0218C5.56094 4.84767 5.65161 5.29355 5.66477 4.98389C5.67584 4.53085 5.94063 4.04839 6.37262 3.79635C6.55387 3.68991 6.75492 3.63434 6.77142 3.63418C7.26881 3.7553 7.68612 4.1376 7.82818 4.66678C8.01739 5.37307 9.52184 10.9883 9.72639 11.7518C9.72639 2.66547 9.71669 3.40367 9.74892 3.21365C9.788 2.99614 9.87943 2.79143 9.98434 2.64463C10.1089 2.46285 10.2765 2.33034 10.2805 2.33034C11.2627 1.57286 12.6238 2.29114 12.6238 3.46999V12.0013C14.9735 3.80528 14.8475 4.23644 14.8693 4.17986C15.2124 3.20218 16.5222 2.85988 17.3011 3.69655C17.3507 3.75261 17.5233 3.01099 14.8774 13.0411V14.7526C14.8774 15.245 15.4269 15.7204 16.0617 15.4734C16.4881 15.3072 16.7271 14.9637 17.054 14.5852C18.525 12.8826 18.3492 13.0829 18.4514 12.9754C18.8797 12.5612 19.4383 12.2391 20.0786 12.091C20.3483 12.0293 20.7747 11.9747 21.0356 12.0146C21.3898 12.0691 21.6818 12.2832 21.8473 12.5699C21.893 12.6465 21.9202 12.7212 21.9221 12.7252Z" fill="#FFE4CC"/>
<path d="M11.0142 20.3314C10.8364 20.3314 10.6922 20.1872 10.6922 20.0094C10.6922 17.4378 12.6116 15.243 15.1568 14.9039C15.3336 14.8807 15.495 15.0043 15.5184 15.1805C15.5419 15.3568 15.418 15.5187 15.2418 15.5421C13.0152 15.8387 11.3361 17.7592 11.3361 20.0094C11.3361 20.1872 11.192 20.3314 11.0142 20.3314Z" fill="#F9CFAC"/>
</g>
<defs>
<clipPath id="clip0_1_45">
<rect width="20" height="20" fill="white" transform="translate(2 2)"/>
</clipPath>
</defs>
</svg>
