<?xml version="1.0" encoding="utf-8"?><svg viewBox="0 0 214 70" xmlns="http://www.w3.org/2000/svg" xmlns:xlink="http://www.w3.org/1999/xlink"><style>:root>svg{display:none}:root>svg:target{display:block}</style><svg fill="none" viewBox="0 0 18 18" id="chat" xmlns="http://www.w3.org/2000/svg"><path d="m5.051 14.829.654.349A6.96 6.96 0 0 0 8.997 16H9a7 7 0 1 0-7-7v.003a6.96 6.96 0 0 0 .822 3.292l.35.654-.538 2.417 2.417-.537ZM0 18l1.058-4.762A9 9 0 0 1 9 0a9 9 0 0 1 9 9 9 9 0 0 1-13.238 7.942L0 18Z" fill="#F75532"/></svg><svg fill="none" viewBox="0 0 30 30" id="close" xmlns="http://www.w3.org/2000/svg"><path d="M15 1.875C7.687 1.875 1.875 7.688 1.875 15c0 7.313 5.813 13.125 13.125 13.125 7.313 0 13.125-5.813 13.125-13.125 0-7.313-5.813-13.125-13.125-13.125Zm5.063 19.688L15 16.5l-5.063 5.063-1.5-1.5L13.5 15 8.437 9.937l1.5-1.5L15 13.5l5.063-5.063 1.5 1.5L16.5 15l5.063 5.063-1.5 1.5Z" fill="#000"/></svg><svg fill="none" viewBox="0 0 190 25" id="company-1" xmlns="http://www.w3.org/2000/svg"><path d="M23.784 1.216 13.736 24h-2.784L.904 1.216H4.36l8 18.624 8.032-18.624h3.392Zm15.41 17.152h-11.52L25.243 24h-3.36L32.026 1.216h2.784L44.986 24h-3.36l-2.431-5.632Zm-1.12-2.624-4.64-10.848-4.64 10.848h9.28Zm19.13 8.512c-2.198 0-4.118-.47-5.76-1.408-1.622-.96-2.87-2.315-3.745-4.064-.874-1.75-1.312-3.819-1.312-6.208 0-2.368.438-4.427 1.312-6.176.875-1.75 2.123-3.093 3.744-4.032C53.086 1.429 55.006.96 57.203.96c1.558 0 2.998.245 4.32.736 1.344.47 2.475 1.163 3.392 2.08l-1.152 2.432c-1.066-.875-2.122-1.504-3.168-1.888-1.024-.405-2.144-.608-3.36-.608-2.368 0-4.202.768-5.504 2.304-1.28 1.536-1.92 3.723-1.92 6.56 0 2.859.64 5.067 1.92 6.624 1.302 1.536 3.136 2.304 5.504 2.304 1.216 0 2.336-.192 3.36-.576 1.046-.405 2.102-1.045 3.168-1.92l1.152 2.432c-.917.917-2.048 1.621-3.392 2.112-1.322.47-2.762.704-4.32.704Zm21.5 0c-2.198 0-4.118-.47-5.76-1.408-1.622-.96-2.87-2.315-3.745-4.064-.874-1.75-1.312-3.819-1.312-6.208 0-2.368.438-4.427 1.312-6.176.875-1.75 2.123-3.093 3.744-4.032C74.586 1.429 76.506.96 78.703.96c1.558 0 2.998.245 4.32.736 1.344.47 2.475 1.163 3.392 2.08l-1.152 2.432c-1.066-.875-2.122-1.504-3.168-1.888-1.024-.405-2.144-.608-3.36-.608-2.368 0-4.202.768-5.504 2.304-1.28 1.536-1.92 3.723-1.92 6.56 0 2.859.64 5.067 1.92 6.624 1.302 1.536 3.136 2.304 5.504 2.304 1.216 0 2.336-.192 3.36-.576 1.046-.405 2.102-1.045 3.168-1.92l1.152 2.432c-.917.917-2.048 1.621-3.392 2.112-1.322.47-2.762.704-4.32.704Zm11.858-23.04h3.296V24h-3.296V1.216Zm27.282 0V24h-2.528L102.26 6.784V24h-3.104V1.216h2.496l13.088 17.248V1.216h3.104Zm5.312 0h14.784v2.688h-11.52v7.168h10.88v2.688h-10.88v7.552h11.52V24h-14.784V1.216Zm26.05 23.04c-1.771 0-3.392-.235-4.864-.704-1.451-.47-2.71-1.173-3.776-2.112l1.184-2.432c1.109.896 2.261 1.547 3.456 1.952 1.194.405 2.538.608 4.032.608 1.706 0 3.029-.32 3.968-.96.938-.64 1.408-1.547 1.408-2.72 0-.981-.438-1.717-1.312-2.208-.875-.512-2.262-.981-4.16-1.408-1.814-.384-3.296-.821-4.448-1.312-1.152-.512-2.059-1.184-2.72-2.016-.662-.853-.992-1.941-.992-3.264 0-1.323.352-2.485 1.056-3.488.704-1.024 1.696-1.813 2.976-2.368 1.301-.576 2.794-.864 4.48-.864 1.6 0 3.093.245 4.48.736 1.408.49 2.581 1.184 3.52 2.08l-1.184 2.432c-1.046-.875-2.123-1.515-3.232-1.92a9.814 9.814 0 0 0-3.552-.64c-1.643 0-2.934.352-3.872 1.056-.939.683-1.408 1.621-1.408 2.816 0 1.024.405 1.803 1.216 2.336.832.533 2.154 1.013 3.968 1.44 1.898.427 3.434.875 4.608 1.344 1.173.47 2.112 1.11 2.816 1.92.704.81 1.056 1.856 1.056 3.136 0 1.323-.352 2.475-1.056 3.456-.704.981-1.718 1.75-3.04 2.304-1.302.533-2.838.8-4.608.8ZM162 1.216h3.296V24H162V1.216Zm27.282 0V24h-2.529L173.698 6.784V24h-3.104V1.216h2.496l13.088 17.248V1.216h3.104Z" fill="#B9C0C1"/></svg><svg fill="none" viewBox="0 0 138 24" id="company-2" xmlns="http://www.w3.org/2000/svg"><path d="M17.632 17.368H6.112L3.68 23H.32L10.464.216h2.784L23.424 23h-3.36l-2.432-5.632Zm-1.12-2.624-4.64-10.848-4.64 10.848h9.28Zm14.988 8.48c-2.816 0-5.035-.683-6.656-2.048l.96-2.336c1.685 1.28 3.616 1.92 5.792 1.92 1.11 0 1.952-.181 2.528-.544.576-.384.864-.917.864-1.6 0-.576-.203-1.024-.608-1.344-.384-.341-1.045-.63-1.984-.864l-2.688-.64c-1.408-.299-2.485-.821-3.232-1.568-.725-.768-1.088-1.717-1.088-2.848 0-1.45.576-2.624 1.728-3.52 1.173-.896 2.72-1.344 4.64-1.344 1.152 0 2.24.181 3.264.544 1.045.363 1.93.875 2.656 1.536l-.992 2.272c-1.557-1.237-3.2-1.856-4.928-1.856-1.045 0-1.856.203-2.432.608-.576.384-.864.928-.864 1.632 0 .555.181 1.003.544 1.344.363.341.939.608 1.728.8l2.752.672c1.536.341 2.667.885 3.392 1.632.747.725 1.12 1.675 1.12 2.848 0 1.45-.587 2.603-1.76 3.456-1.152.832-2.73 1.248-4.736 1.248ZM45.841 9.368v8.096c0 1.11.235 1.899.704 2.368.49.448 1.163.672 2.016.672a5.95 5.95 0 0 0 1.696-.256v2.624c-.704.235-1.504.352-2.4.352-1.664 0-2.954-.47-3.872-1.408-.917-.939-1.376-2.304-1.376-4.096V9.368h-3.136V6.872h3.136V2.84l3.232-1.12v5.152h4.448v2.496h-4.448Zm15.465-2.88c.49 0 1.003.075 1.536.224l-.064 2.944a5.397 5.397 0 0 0-1.888-.32c-1.472 0-2.581.448-3.328 1.344-.725.875-1.088 1.984-1.088 3.328V23h-3.2V11.416c0-1.685-.085-3.2-.256-4.544h3.008l.288 2.912c.427-1.067 1.088-1.877 1.984-2.432.896-.576 1.899-.864 3.008-.864Zm18.439.384V23h-3.2v-2.752a4.918 4.918 0 0 1-2.112 2.208c-.917.512-1.995.768-3.232.768-1.43 0-2.688-.341-3.776-1.024-1.067-.683-1.899-1.643-2.496-2.88-.597-1.259-.896-2.72-.896-4.384 0-1.664.299-3.136.896-4.416.619-1.28 1.472-2.272 2.56-2.976 1.088-.704 2.325-1.056 3.712-1.056 1.237 0 2.315.267 3.232.8a5.152 5.152 0 0 1 2.112 2.208V6.872h3.2Zm-7.776 13.792c1.45 0 2.57-.501 3.36-1.504.81-1.024 1.216-2.453 1.216-4.288 0-1.856-.405-3.285-1.216-4.288-.79-1.003-1.92-1.504-3.392-1.504-1.45 0-2.592.523-3.424 1.568-.81 1.024-1.216 2.453-1.216 4.288 0 1.813.405 3.221 1.216 4.224.832 1.003 1.984 1.504 3.456 1.504ZM104.909.216 94.861 23h-2.784L82.029.216h3.456l8 18.624L101.517.216h3.392Zm15.149 6.656V23h-3.2v-2.752a4.925 4.925 0 0 1-2.112 2.208c-.918.512-1.995.768-3.232.768-1.43 0-2.688-.341-3.776-1.024-1.067-.683-1.899-1.643-2.496-2.88-.598-1.259-.896-2.72-.896-4.384 0-1.664.298-3.136.896-4.416.618-1.28 1.472-2.272 2.56-2.976 1.088-.704 2.325-1.056 3.712-1.056 1.237 0 2.314.267 3.232.8a5.155 5.155 0 0 1 2.112 2.208V6.872h3.2Zm-7.776 13.792c1.45 0 2.57-.501 3.36-1.504.81-1.024 1.216-2.453 1.216-4.288 0-1.856-.406-3.285-1.216-4.288-.79-1.003-1.92-1.504-3.392-1.504-1.451 0-2.592.523-3.424 1.568-.811 1.024-1.216 2.453-1.216 4.288 0 1.813.405 3.221 1.216 4.224.832 1.003 1.984 1.504 3.456 1.504Zm19.532 2.56c-1.622 0-3.04-.341-4.256-1.024a6.89 6.89 0 0 1-2.752-2.88c-.64-1.259-.96-2.72-.96-4.384 0-1.664.33-3.136.992-4.416.682-1.28 1.632-2.272 2.848-2.976 1.216-.704 2.634-1.056 4.256-1.056 1.13 0 2.218.192 3.264.576 1.045.363 1.888.864 2.528 1.504l-.992 2.336c-1.515-1.195-3.04-1.792-4.576-1.792-1.558 0-2.774.512-3.648 1.536-.875 1.003-1.312 2.421-1.312 4.256 0 1.835.437 3.253 1.312 4.256.874.981 2.09 1.472 3.648 1.472 1.578 0 3.104-.597 4.576-1.792l.992 2.336c-.683.64-1.558 1.141-2.624 1.504a9.986 9.986 0 0 1-3.296.544Z" fill="#B9C0C1"/></svg><svg fill="none" viewBox="0 0 214 25" id="company-3" xmlns="http://www.w3.org/2000/svg"><path d="M19.984 1.216V24h-3.296V13.792H3.92V24H.656V1.216H3.92v9.856h12.768V1.216h3.296ZM38.753 16h-11.52c.107 3.776 1.824 5.664 5.152 5.664 1.856 0 3.552-.608 5.088-1.824l.992 2.304c-.725.64-1.653 1.152-2.784 1.536-1.11.363-2.23.544-3.36.544-2.581 0-4.608-.736-6.08-2.208-1.472-1.493-2.208-3.53-2.208-6.112 0-1.643.32-3.104.96-4.384.661-1.28 1.579-2.272 2.752-2.976 1.173-.704 2.507-1.056 4-1.056 2.176 0 3.883.704 5.12 2.112 1.259 1.408 1.888 3.36 1.888 5.856V16Zm-6.944-6.112c-1.216 0-2.208.363-2.976 1.088-.768.725-1.259 1.76-1.472 3.104h8.544c-.128-1.365-.544-2.4-1.248-3.104-.704-.725-1.653-1.088-2.848-1.088Zm25.405-2.016V24h-3.2v-2.752a4.919 4.919 0 0 1-2.112 2.208c-.918.512-1.995.768-3.232.768-1.43 0-2.688-.341-3.776-1.024-1.067-.683-1.899-1.643-2.496-2.88-.598-1.259-.896-2.72-.896-4.384 0-1.664.298-3.136.896-4.416.618-1.28 1.472-2.272 2.56-2.976 1.088-.704 2.325-1.056 3.712-1.056 1.237 0 2.314.267 3.232.8a5.152 5.152 0 0 1 2.112 2.208V7.872h3.2Zm-7.776 13.792c1.45 0 2.57-.501 3.36-1.504.81-1.024 1.216-2.453 1.216-4.288 0-1.856-.406-3.285-1.216-4.288-.79-1.003-1.92-1.504-3.392-1.504-1.45 0-2.592.523-3.424 1.568-.81 1.024-1.216 2.453-1.216 4.288 0 1.813.405 3.221 1.216 4.224.832 1.003 1.984 1.504 3.456 1.504ZM61.962.448h3.2V24h-3.2V.448Zm12.13 9.92v8.096c0 1.11.234 1.899.703 2.368.49.448 1.163.672 2.016.672a5.95 5.95 0 0 0 1.696-.256v2.624c-.704.235-1.504.352-2.4.352-1.664 0-2.954-.47-3.872-1.408-.917-.939-1.376-2.304-1.376-4.096v-8.352h-3.136V7.872h3.136V3.84l3.232-1.12v5.152h4.448v2.496h-4.448ZM90.1 7.488c3.862 0 5.792 2.155 5.792 6.464V24H92.66v-9.856c0-1.408-.277-2.432-.832-3.072-.533-.64-1.397-.96-2.592-.96-1.365 0-2.464.427-3.296 1.28-.81.853-1.216 1.995-1.216 3.424V24h-3.2V.448h3.2v9.92a5.342 5.342 0 0 1 2.208-2.144c.939-.49 1.995-.736 3.168-.736Zm30.809-6.272L110.861 24h-2.784L98.029 1.216h3.456l8 18.624 8.032-18.624h3.392Zm15.149 6.656V24h-3.2v-2.752a4.925 4.925 0 0 1-2.112 2.208c-.918.512-1.995.768-3.232.768-1.43 0-2.688-.341-3.776-1.024-1.067-.683-1.899-1.643-2.496-2.88-.598-1.259-.896-2.72-.896-4.384 0-1.664.298-3.136.896-4.416.618-1.28 1.472-2.272 2.56-2.976 1.088-.704 2.325-1.056 3.712-1.056 1.237 0 2.314.267 3.232.8a5.155 5.155 0 0 1 2.112 2.208V7.872h3.2Zm-7.776 13.792c1.45 0 2.57-.501 3.36-1.504.81-1.024 1.216-2.453 1.216-4.288 0-1.856-.406-3.285-1.216-4.288-.79-1.003-1.92-1.504-3.392-1.504-1.451 0-2.592.523-3.424 1.568-.811 1.024-1.216 2.453-1.216 4.288 0 1.813.405 3.221 1.216 4.224.832 1.003 1.984 1.504 3.456 1.504Zm19.532 2.56c-1.622 0-3.04-.341-4.256-1.024a6.89 6.89 0 0 1-2.752-2.88c-.64-1.259-.96-2.72-.96-4.384 0-1.664.33-3.136.992-4.416.682-1.28 1.632-2.272 2.848-2.976 1.216-.704 2.634-1.056 4.256-1.056 1.13 0 2.218.192 3.264.576 1.045.363 1.888.864 2.528 1.504l-.992 2.336c-1.515-1.195-3.04-1.792-4.576-1.792-1.558 0-2.774.512-3.648 1.536-.875 1.003-1.312 2.421-1.312 4.256 0 1.835.437 3.253 1.312 4.256.874.981 2.09 1.472 3.648 1.472 1.578 0 3.104-.597 4.576-1.792l.992 2.336c-.683.64-1.558 1.141-2.624 1.504a9.986 9.986 0 0 1-3.296.544Zm15.968 0c-1.621 0-3.04-.341-4.256-1.024a6.896 6.896 0 0 1-2.752-2.88c-.64-1.259-.96-2.72-.96-4.384 0-1.664.331-3.136.992-4.416.683-1.28 1.632-2.272 2.848-2.976 1.216-.704 2.635-1.056 4.256-1.056 1.131 0 2.219.192 3.264.576 1.046.363 1.888.864 2.528 1.504l-.992 2.336c-1.514-1.195-3.04-1.792-4.576-1.792-1.557 0-2.773.512-3.648 1.536-.874 1.003-1.312 2.421-1.312 4.256 0 1.835.438 3.253 1.312 4.256.875.981 2.091 1.472 3.648 1.472 1.579 0 3.104-.597 4.576-1.792l.992 2.336c-.682.64-1.557 1.141-2.624 1.504a9.981 9.981 0 0 1-3.296.544Zm8.961-16.352h3.2V24h-3.2V7.872Zm3.456-7.04v3.392h-3.744V.832h3.744Zm13.058 6.656c3.861 0 5.792 2.155 5.792 6.464V24h-3.232v-9.856c0-1.408-.278-2.432-.832-3.072-.534-.64-1.398-.96-2.592-.96-1.366 0-2.464.427-3.296 1.28-.811.853-1.216 1.995-1.216 3.424V24h-3.2V12.416c0-1.685-.086-3.2-.257-4.544h3.009l.288 2.784c.512-1.024 1.248-1.803 2.208-2.336.981-.555 2.09-.832 3.328-.832ZM213.409 16h-11.52c.107 3.776 1.824 5.664 5.152 5.664 1.856 0 3.552-.608 5.088-1.824l.992 2.304c-.725.64-1.653 1.152-2.784 1.536a10.748 10.748 0 0 1-3.36.544c-2.581 0-4.608-.736-6.08-2.208-1.472-1.493-2.208-3.53-2.208-6.112 0-1.643.32-3.104.96-4.384.662-1.28 1.579-2.272 2.752-2.976 1.174-.704 2.507-1.056 4-1.056 2.176 0 3.883.704 5.12 2.112 1.259 1.408 1.888 3.36 1.888 5.856V16Zm-6.944-6.112c-1.216 0-2.208.363-2.976 1.088-.768.725-1.258 1.76-1.472 3.104h8.544c-.128-1.365-.544-2.4-1.248-3.104-.704-.725-1.653-1.088-2.848-1.088Z" fill="#B9C0C1"/></svg><svg fill="none" viewBox="0 0 158 31" id="company-4" xmlns="http://www.w3.org/2000/svg"><path d="M9.112 24.256c-1.77 0-3.392-.235-4.864-.704-1.45-.47-2.71-1.173-3.776-2.112l1.184-2.432c1.11.896 2.261 1.547 3.456 1.952 1.195.405 2.539.608 4.032.608 1.707 0 3.03-.32 3.968-.96.939-.64 1.408-1.547 1.408-2.72 0-.981-.437-1.717-1.312-2.208-.875-.512-2.261-.981-4.16-1.408-1.813-.384-3.296-.821-4.448-1.312-1.152-.512-2.059-1.184-2.72-2.016-.661-.853-.992-1.941-.992-3.264 0-1.323.352-2.485 1.056-3.488.704-1.024 1.696-1.813 2.976-2.368C6.221 1.248 7.715.96 9.4.96c1.6 0 3.093.245 4.48.736 1.408.49 2.581 1.184 3.52 2.08l-1.184 2.432c-1.045-.875-2.123-1.515-3.232-1.92a9.809 9.809 0 0 0-3.552-.64c-1.643 0-2.933.352-3.872 1.056-.939.683-1.408 1.621-1.408 2.816 0 1.024.405 1.803 1.216 2.336.832.533 2.155 1.013 3.968 1.44 1.899.427 3.435.875 4.608 1.344 1.173.47 2.112 1.11 2.816 1.92.704.81 1.056 1.856 1.056 3.136 0 1.323-.352 2.475-1.056 3.456-.704.981-1.717 1.75-3.04 2.304-1.301.533-2.837.8-4.608.8ZM21.618 7.872h3.2V24h-3.2V7.872Zm3.456-7.04v3.392H21.33V.832h3.744Zm22.881 6.656c3.584 0 5.377 2.155 5.377 6.464V24h-3.233v-9.888c0-1.387-.245-2.4-.735-3.04-.47-.64-1.238-.96-2.304-.96-1.238 0-2.22.427-2.945 1.28-.704.853-1.056 2.016-1.056 3.488V24h-3.231v-9.888c0-1.387-.246-2.4-.736-3.04-.47-.64-1.238-.96-2.304-.96-1.238 0-2.22.427-2.944 1.28-.726.853-1.089 2.016-1.089 3.488V24h-3.2V12.416c0-1.685-.085-3.2-.256-4.544h3.008l.288 2.688c.47-.981 1.142-1.739 2.017-2.272.874-.533 1.898-.8 3.072-.8 2.495 0 4.128 1.035 4.896 3.104a5.499 5.499 0 0 1 2.144-2.272c.96-.555 2.037-.832 3.232-.832Zm18.55 0c1.387 0 2.625.352 3.713 1.056 1.088.704 1.93 1.696 2.528 2.976.618 1.28.928 2.752.928 4.416 0 1.664-.299 3.125-.896 4.384-.598 1.237-1.44 2.197-2.528 2.88-1.088.683-2.336 1.024-3.744 1.024-1.238 0-2.326-.256-3.264-.768a5.115 5.115 0 0 1-2.08-2.272v9.728h-3.2V12.416c0-1.685-.086-3.2-.256-4.544h3.008l.32 2.976c.426-1.067 1.12-1.888 2.08-2.464.96-.597 2.09-.896 3.392-.896Zm-.735 14.176c1.45 0 2.581-.501 3.392-1.504.81-1.003 1.216-2.41 1.216-4.224 0-1.835-.406-3.264-1.216-4.288-.81-1.045-1.942-1.568-3.392-1.568-1.494 0-2.635.501-3.424 1.504-.79 1.003-1.184 2.432-1.184 4.288 0 1.856.394 3.285 1.184 4.288.81 1.003 1.952 1.504 3.424 1.504Zm26.956-3.296h-11.52L78.774 24h-3.36L85.558 1.216h2.784L98.518 24h-3.36l-2.432-5.632Zm-1.12-2.624-4.64-10.848-4.64 10.848h9.28Zm16.583 8.48c-1.622 0-3.04-.341-4.256-1.024a6.89 6.89 0 0 1-2.752-2.88c-.64-1.259-.96-2.72-.96-4.384 0-1.664.33-3.136.992-4.416.682-1.28 1.632-2.272 2.848-2.976 1.216-.704 2.634-1.056 4.256-1.056 1.13 0 2.218.192 3.264.576 1.045.363 1.888.864 2.528 1.504l-.992 2.336c-1.515-1.195-3.04-1.792-4.576-1.792-1.558 0-2.774.512-3.648 1.536-.875 1.003-1.312 2.421-1.312 4.256 0 1.835.437 3.253 1.312 4.256.874.981 2.09 1.472 3.648 1.472 1.578 0 3.104-.597 4.576-1.792l.992 2.336c-.683.64-1.558 1.141-2.624 1.504a9.986 9.986 0 0 1-3.296.544Zm8.96-16.352h3.2V24h-3.2V7.872Zm3.456-7.04v3.392h-3.744V.832h3.744Zm13.058 6.656c3.861 0 5.792 2.155 5.792 6.464V24h-3.232v-9.856c0-1.408-.278-2.432-.832-3.072-.534-.64-1.398-.96-2.592-.96-1.366 0-2.464.427-3.296 1.28-.811.853-1.216 1.995-1.216 3.424V24h-3.2V12.416c0-1.685-.086-3.2-.256-4.544h3.008l.288 2.784c.512-1.024 1.248-1.803 2.208-2.336.981-.555 2.09-.832 3.328-.832ZM157.816 16h-11.52c.106 3.776 1.824 5.664 5.152 5.664 1.856 0 3.552-.608 5.088-1.824l.992 2.304c-.726.64-1.654 1.152-2.784 1.536-1.11.363-2.23.544-3.36.544-2.582 0-4.608-.736-6.08-2.208-1.472-1.493-2.208-3.53-2.208-6.112 0-1.643.32-3.104.96-4.384.661-1.28 1.578-2.272 2.752-2.976 1.173-.704 2.506-1.056 4-1.056 2.176 0 3.882.704 5.12 2.112 1.258 1.408 1.888 3.36 1.888 5.856V16Zm-6.944-6.112c-1.216 0-2.208.363-2.976 1.088-.768.725-1.259 1.76-1.472 3.104h8.544c-.128-1.365-.544-2.4-1.248-3.104-.704-.725-1.654-1.088-2.848-1.088Z" fill="#B9C0C1"/></svg><svg fill="none" viewBox="0 0 100 70" id="decor-1" xmlns="http://www.w3.org/2000/svg"><circle cx="5" cy="5" r="5" fill="#FFE1D8"/><circle cx="5" cy="35" r="5" fill="#FFE1D8"/><circle cx="5" cy="65" r="5" fill="#FFE1D8"/><circle cx="35" cy="5" r="5" fill="#FFE1D8"/><circle cx="35" cy="35" r="5" fill="#FFE1D8"/><circle cx="35" cy="65" r="5" fill="#FFE1D8"/><circle cx="65" cy="5" r="5" fill="#FFE1D8"/><circle cx="65" cy="35" r="5" fill="#FFE1D8"/><circle cx="65" cy="65" r="5" fill="#FFE1D8"/><circle cx="95" cy="5" r="5" fill="#FFE1D8"/><circle cx="95" cy="35" r="5" fill="#FFE1D8"/><circle cx="95" cy="65" r="5" fill="#FFE1D8"/></svg><svg fill="none" viewBox="0 0 20 16" id="email" xmlns="http://www.w3.org/2000/svg"><path d="M18 16H2a2 2 0 0 1-2-2V1.913A2 2 0 0 1 2 0h16a2 2 0 0 1 2 2v12a2 2 0 0 1-2 2ZM2 3.868V14h16V3.868L10 9.2 2 3.868ZM2.8 2 10 6.8 17.2 2H2.8Z" fill="#F75532"/></svg><svg fill="none" viewBox="0 0 20 18" id="error" xmlns="http://www.w3.org/2000/svg"><path d="M18 18H2a2 2 0 0 1-2-2V2a2 2 0 0 1 2-2h16a2 2 0 0 1 2 2v14a2 2 0 0 1-2 2ZM2 4v12h16V4H2Zm5.706 9.708-1.413-1.415L8.586 10 6.293 7.707l1.414-1.414L10 8.586l2.293-2.293 1.414 1.414L11.414 10l2.293 2.293-1.413 1.413L10 11.414l-2.293 2.293-.001.001Z" fill="#F75532"/></svg><svg fill="none" viewBox="0 0 24 24" id="hello" xmlns="http://www.w3.org/2000/svg"><g clip-path="url(#ja)"><path d="m21.651 13.96-6.042 6.324a5.795 5.795 0 0 1-4.098 1.697h-1.14a5.312 5.312 0 0 1-5.313-5.312 8.053 8.053 0 0 0-1.079-4.026l-1.806-3.13a1.288 1.288 0 1 1 2.23-1.287l2.573 4.457C4.917 4.999 4.926 5.224 5 4.807c0-.042.052-.25.125-.395.593-1.218 2.36-1.027 2.704.255l1.898 7.085c0-8.775-.006-8.331.012-8.466.1-.752.757-1.263 1.363-1.263.839-.04 1.523.626 1.523 1.447v8.531c2.422-8.448 2.22-7.856 2.4-8.129.377-.597 1.229-.847 1.909-.466.538.27.879.965.698 1.642l-2.11 7.872v1.712c0 .574.694.861 1.1.455 1.947-2.254 1.773-2.059 1.866-2.146 1.008-.934 2.378-1.071 2.832-.844.716.308.933 1.262.332 1.863Z" fill="#F9CFAC"/><path d="m21.922 12.725-6.906 7.168a5.792 5.792 0 0 1-3.083 1.396c-3.594.467-6.23-2.196-6.23-5.264A8.053 8.053 0 0 0 4.622 12C2.186 7.854 2.327 8.097 2.3 8.043a1.287 1.287 0 0 1 1.33-.415c.279.077.439.204.62.386a284.4 284.4 0 0 1 2.726 4.669.525.525 0 0 0 .507-.661C5.561 4.848 5.652 5.294 5.665 4.984a1.458 1.458 0 0 1 1.106-1.35c.498.121.915.504 1.057 1.033l1.898 7.085c0-9.087-.01-8.348.023-8.538a1.452 1.452 0 0 1 .531-.884c.983-.757 2.344-.039 2.344 1.14v8.531c2.35-8.196 2.223-7.765 2.245-7.821a1.448 1.448 0 0 1 2.432-.483c.05.056.222-.686-2.424 9.344v1.712c0 .492.55.967 1.185.72.426-.166.665-.51.992-.888 1.471-1.702 1.295-1.502 1.397-1.61a3.473 3.473 0 0 1 1.628-.884c.27-.062.696-.116.957-.076.354.054.646.268.811.555.046.076.073.151.075.155Z" fill="#FFE4CC"/><path d="M11.014 20.331a.322.322 0 0 1-.322-.322 5.164 5.164 0 0 1 4.465-5.105.322.322 0 1 1 .085.638 4.518 4.518 0 0 0-3.906 4.467.322.322 0 0 1-.322.322Z" fill="#F9CFAC"/></g><defs><clipPath id="ja"><path fill="#fff" transform="translate(2 2)" d="M0 0h20v20H0z"/></clipPath></defs></svg><svg fill="none" viewBox="0 0 117 24" id="logo" xmlns="http://www.w3.org/2000/svg"><path d="M6.744 19c-1.2-2.592-2.36-5.304-3.48-8.136A201.474 201.474 0 0 1 .168 2.368h3.336L4.68 5.8c.4 1.168.8 2.32 1.2 3.456.4 1.12.8 2.208 1.2 3.264.4 1.056.792 2.024 1.176 2.904.368-.88.752-1.84 1.152-2.88.4-1.056.8-2.152 1.2-3.288.416-1.136.824-2.288 1.224-3.456a290 290 0 0 0 1.152-3.432h3.24a227.273 227.273 0 0 1-3.12 8.496A142.96 142.96 0 0 1 9.648 19H6.744Zm15.364-2.04c.896 0 1.576-.048 2.04-.144V13.6a6.489 6.489 0 0 0-1.704-.216c-.32 0-.648.024-.984.072-.32.048-.616.136-.888.264a1.596 1.596 0 0 0-.624.552c-.16.224-.24.512-.24.864 0 .688.216 1.168.648 1.44.432.256 1.016.384 1.752.384Zm-.24-10.824c.96 0 1.768.12 2.424.36.656.24 1.176.576 1.56 1.008.4.432.68.96.84 1.584.176.608.264 1.28.264 2.016v7.608c-.448.096-1.128.208-2.04.336-.896.144-1.912.216-3.048.216-.752 0-1.44-.072-2.064-.216-.624-.144-1.16-.376-1.608-.696a3.436 3.436 0 0 1-1.032-1.248c-.24-.512-.36-1.144-.36-1.896 0-.72.136-1.328.408-1.824a3.449 3.449 0 0 1 1.152-1.2 4.628 4.628 0 0 1 1.656-.672 9.048 9.048 0 0 1 1.992-.216c.32 0 .656.024 1.008.072.352.032.728.096 1.128.192v-.48c0-.336-.04-.656-.12-.96a1.829 1.829 0 0 0-.432-.792 1.813 1.813 0 0 0-.792-.552c-.32-.128-.728-.192-1.224-.192-.672 0-1.288.048-1.848.144a8.125 8.125 0 0 0-1.368.336l-.36-2.352c.368-.128.904-.256 1.608-.384a12.61 12.61 0 0 1 2.256-.192Zm7.948 6.6c0-.928.144-1.792.432-2.592a6.265 6.265 0 0 1 1.224-2.112A5.787 5.787 0 0 1 33.44 6.64c.768-.336 1.632-.504 2.592-.504 1.184 0 2.304.216 3.36.648l-.624 2.376a6.521 6.521 0 0 0-1.152-.36 5.969 5.969 0 0 0-1.344-.144c-1.136 0-2 .36-2.592 1.08-.592.704-.888 1.704-.888 3 0 1.248.28 2.24.84 2.976.56.72 1.504 1.08 2.832 1.08.496 0 .984-.048 1.464-.144a6.88 6.88 0 0 0 1.248-.36l.408 2.4c-.32.16-.808.304-1.464.432-.64.128-1.304.192-1.992.192-1.072 0-2.008-.16-2.808-.48a5.641 5.641 0 0 1-1.968-1.368 5.898 5.898 0 0 1-1.152-2.088 8.775 8.775 0 0 1-.384-2.64Zm11.32 0c0-.928.144-1.792.432-2.592a6.265 6.265 0 0 1 1.224-2.112A5.787 5.787 0 0 1 44.76 6.64c.768-.336 1.632-.504 2.592-.504 1.184 0 2.304.216 3.36.648l-.624 2.376a6.521 6.521 0 0 0-1.152-.36 5.969 5.969 0 0 0-1.344-.144c-1.136 0-2 .36-2.592 1.08-.592.704-.888 1.704-.888 3 0 1.248.28 2.24.84 2.976.56.72 1.504 1.08 2.832 1.08.496 0 .984-.048 1.464-.144a6.88 6.88 0 0 0 1.248-.36l.408 2.4c-.32.16-.808.304-1.464.432-.64.128-1.304.192-1.992.192-1.072 0-2.008-.16-2.808-.48a5.641 5.641 0 0 1-1.968-1.368 5.898 5.898 0 0 1-1.152-2.088 8.775 8.775 0 0 1-.384-2.64ZM56.081 19h-2.904V6.448h2.904V19Zm.312-16.224c0 .544-.176.976-.528 1.296-.352.32-.768.48-1.248.48-.496 0-.92-.16-1.272-.48-.352-.32-.528-.752-.528-1.296 0-.56.176-1 .528-1.32.352-.32.776-.48 1.272-.48.48 0 .896.16 1.248.48.352.32.528.76.528 1.32Zm3.392 4.08c.56-.16 1.289-.312 2.184-.456a18.83 18.83 0 0 1 2.976-.216c1.025 0 1.88.144 2.569.432.688.272 1.232.664 1.632 1.176.415.496.704 1.104.864 1.824.175.704.263 1.48.263 2.328V19H67.37v-6.6c0-.672-.049-1.24-.145-1.704-.08-.48-.224-.864-.431-1.152a1.57 1.57 0 0 0-.816-.648c-.337-.144-.752-.216-1.248-.216-.368 0-.753.024-1.153.072-.4.048-.695.088-.887.12V19h-2.904V6.856Zm13.344 5.928c0-1.104.16-2.072.48-2.904.336-.832.776-1.52 1.32-2.064A5.2 5.2 0 0 1 76.8 6.568a5.656 5.656 0 0 1 2.16-.432c1.728 0 3.072.536 4.032 1.608.976 1.072 1.464 2.672 1.464 4.8 0 .16-.008.344-.024.552 0 .192-.008.368-.024.528h-8.28c.08 1.008.432 1.792 1.056 2.352.64.544 1.56.816 2.76.816.704 0 1.344-.064 1.92-.192.592-.128 1.056-.264 1.392-.408l.384 2.376a5.36 5.36 0 0 1-.672.264c-.272.08-.592.152-.96.216a11.09 11.09 0 0 1-2.424.264c-1.104 0-2.064-.16-2.88-.48-.816-.336-1.488-.792-2.016-1.368a5.738 5.738 0 0 1-1.176-2.064 8.543 8.543 0 0 1-.384-2.616Zm8.424-1.296a3.7 3.7 0 0 0-.168-1.128 2.509 2.509 0 0 0-.504-.936 2.027 2.027 0 0 0-.792-.624c-.304-.16-.672-.24-1.104-.24-.448 0-.84.088-1.176.264-.336.16-.624.376-.864.648-.224.272-.4.584-.528.936a5.07 5.07 0 0 0-.264 1.08h5.4Z" fill="#F75532"/><path d="M90.151 10.672c0 .912.112 1.744.337 2.496.224.736.543 1.368.96 1.896.431.512.952.912 1.56 1.2.608.288 1.296.432 2.064.432.751 0 1.431-.144 2.04-.432a4.352 4.352 0 0 0 1.535-1.2c.432-.528.76-1.16.984-1.896.225-.752.337-1.584.337-2.496 0-.912-.112-1.736-.337-2.472-.224-.752-.552-1.384-.984-1.896a4.241 4.241 0 0 0-1.535-1.224c-.608-.288-1.288-.432-2.04-.432-.769 0-1.457.144-2.065.432a4.462 4.462 0 0 0-1.56 1.224c-.416.528-.736 1.16-.96 1.896-.224.736-.335 1.56-.335 2.472Zm12.985 0c0 1.2-.152 2.28-.456 3.24-.304.96-.728 1.8-1.272 2.52a7.032 7.032 0 0 1-1.92 1.728 7.568 7.568 0 0 1-2.376.96c.047.336.216.624.504.864.287.24.647.44 1.08.6.448.16.951.288 1.512.384a15.76 15.76 0 0 0 1.8.24l-.672 2.28c-2.064-.16-3.704-.56-4.92-1.2-1.216-.624-1.992-1.624-2.328-3a8.18 8.18 0 0 1-2.784-.768 7.214 7.214 0 0 1-2.233-1.704c-.64-.72-1.144-1.592-1.511-2.616-.368-1.024-.553-2.2-.553-3.528 0-1.424.216-2.672.648-3.744.433-1.088 1.016-2 1.752-2.736A7.403 7.403 0 0 1 92 2.536a8.702 8.702 0 0 1 3.096-.552c1.087 0 2.12.184 3.096.552a6.94 6.94 0 0 1 2.544 1.656c.736.736 1.32 1.648 1.752 2.736.432 1.072.648 2.32.648 3.744Zm13.469 7.944a25.04 25.04 0 0 1-2.184.432c-.896.16-1.88.24-2.952.24-1.008 0-1.856-.144-2.544-.432-.672-.288-1.216-.688-1.632-1.2-.4-.512-.688-1.12-.864-1.824a9.894 9.894 0 0 1-.264-2.352V6.448h2.904v6.576c0 1.344.192 2.304.576 2.88.4.576 1.088.864 2.064.864.352 0 .72-.016 1.104-.048.4-.032.696-.072.888-.12V6.448h2.904v12.168Z" fill="#001F29"/></svg><svg fill="none" viewBox="0 0 20 22" id="map" xmlns="http://www.w3.org/2000/svg"><path d="M7.108 21.092 0 18.721V2.613l6.892 2.3L13.923.892 20 3.323v16.154l-5.923-2.37-6.968 3.985h-.001ZM2 5.392v11.887l4 1.333V6.72L2 5.392Zm10-1.1L8 6.58v11.7l4-2.288v-11.7Zm2.077-1.186L14 3.152v11.771l4 1.6V4.676l-3.923-1.57Z" fill="#F75532"/></svg><svg fill="none" viewBox="0 0 14 19" id="marker" xmlns="http://www.w3.org/2000/svg"><path d="M7 18.004a29.778 29.778 0 0 1-3.5-3.531C1.9 12.562 0 9.716 0 7.003a7 7 0 0 1 11.952-4.95A6.955 6.955 0 0 1 14 7.003c0 2.713-1.9 5.559-3.5 7.47a29.777 29.777 0 0 1-3.5 3.53Zm0-16a5.006 5.006 0 0 0-5 5c0 1.166.527 3.185 3.035 6.186A27.922 27.922 0 0 0 7 15.304a28.083 28.083 0 0 0 1.966-2.111C11.473 10.188 12 8.169 12 7.003a5.006 5.006 0 0 0-5-5Zm0 8a3 3 0 1 1 0-6 3 3 0 0 1 0 6Z" fill="#F75532"/></svg><svg fill="none" viewBox="0 0 20 20" id="notice" xmlns="http://www.w3.org/2000/svg"><path d="M9.99 20C4.468 19.994-.004 15.515 0 9.993.004 4.472 4.482-.002 10.003 0 15.525.002 20 4.478 20 10c-.003 5.525-4.485 10.002-10.01 10ZM2 10.172A8 8 0 1 0 2 10v.172ZM11 15H9v-2h2v2Zm0-4H9V5h2v6Z" fill="#F75532"/></svg><svg fill="none" viewBox="0 0 20 18" id="people" xmlns="http://www.w3.org/2000/svg"><path d="M7 0a5 5 0 1 0 0 10A5 5 0 0 0 7 0ZM4 5a3 3 0 1 1 6 0 3 3 0 0 1-6 0ZM14.908 5.218A2 2 0 0 0 14 5V3a4 4 0 1 1-2.357 7.232l1.178-1.616a2 2 0 1 0 2.087-3.398ZM17.998 18A3.999 3.999 0 0 0 14 14.002V12a6.001 6.001 0 0 1 6 6h-2.002ZM14 18h-2a5 5 0 0 0-10 0H0a7 7 0 1 1 14 0Z" fill="#F75532"/></svg><svg fill="none" viewBox="0 0 24 24" id="phone" xmlns="http://www.w3.org/2000/svg"><path d="M8.742 8.682c-1.073.912-1.466 2.575-.54 3.909a12.818 12.818 0 0 0 3.208 3.207c1.334.926 2.997.533 3.909-.54l.01.005c1.164.54 2.401.909 3.671 1.097V19h-.004C11.022 19.011 4.991 12.911 5 5.004V5h2.64v.001c.188 1.27.558 2.506 1.097 3.67l.005.01ZM19 21H20a1 1 0 0 0 1-1v-4.502a1 1 0 0 0-.853-.99l-.854-.126a11.416 11.416 0 0 1-3.123-.934l-.753-.349a1 1 0 0 0-1.234.326l-.341.477c-.299.419-.87.546-1.291.253a10.819 10.819 0 0 1-2.706-2.705c-.293-.422-.165-.993.253-1.291l.477-.34a1 1 0 0 0 .326-1.235l-.35-.754c-.458-.99-.773-2.042-.933-3.123l-.127-.854A1 1 0 0 0 8.501 3H4a1 1 0 0 0-1 1v1.001C2.99 14.008 9.91 21.013 18.999 21Z" fill="#F75532"/></svg><svg fill="none" viewBox="0 0 18 20" id="schedule" xmlns="http://www.w3.org/2000/svg"><path d="M15.417 19.167H2.583A1.833 1.833 0 0 1 .75 17.333V4.5c0-1.013.82-1.833 1.833-1.833h1.834V.833H6.25v1.834h5.5V.833h1.833v1.834h1.834c1.012 0 1.833.82 1.833 1.833v12.833c0 1.013-.82 1.834-1.833 1.834Zm-12.834-11v9.166h12.834V8.167H2.583Zm0-3.667v1.833h12.834V4.5H2.583Zm5.5 11.38L4.685 12.48l1.296-1.296 2.102 2.102 3.936-3.935 1.296 1.296-5.232 5.23v.002Z" fill="#F75532"/></svg><svg fill="none" viewBox="0 0 14 14" id="squares" xmlns="http://www.w3.org/2000/svg"><path d="M13.667 13.667H8.333V8.333h5.334v5.334Zm-8 0H.333V8.333h5.334v5.334Zm8-8H8.333V.333h5.334v5.334Zm-8 0H.333V.333h5.334v5.334Z" fill="#F75532"/></svg><svg fill="none" viewBox="0 0 19 17" id="wave" xmlns="http://www.w3.org/2000/svg"><path d="M2 17.001H0a6 6 0 0 1 12 0h-2a4 4 0 0 0-8 0Zm14.364-3.637L14.95 11.95a7 7 0 0 0 0-9.9L16.364.636a9 9 0 0 1 0 12.727v.001Zm-2.829-2.828L12.121 9.12a3 3 0 0 0 0-4.24l1.414-1.417a5 5 0 0 1 0 7.071v.002ZM6 10a4 4 0 1 1 0-8 4 4 0 0 1 0 8Zm0-6a2 2 0 1 0 2 2.09v.4V6a2 2 0 0 0-2-2Z" fill="#F75532"/></svg></svg>